<svg xmlns="http://www.w3.org/2000/svg" viewBox="0 0 100 100">
  <rect width="100" height="100" fill="#000000" />
  <!-- More Realistic Rooster Silhouette -->
  <!-- Body and Tail feathers -->
  <path d="M20,70 C10,70 5,50 15,35 C20,25 35,20 45,25 C55,30 60,50 85,60 C95,70 85,85 70,85 C55,85 30,85 20,70 Z" fill="#ffffff" />
  <!-- Tail feathers detail (cutout) -->
  <path d="M75,65 Q85,75 75,85 M70,62 Q80,72 70,82 M65,60 Q75,70 65,80" fill="none" stroke="#000000" stroke-width="1.5" />
  
  <!-- Neck and Head -->
  <path d="M45,35 Q40,15 55,10 C70,5 75,25 70,45 Q65,60 50,65" fill="#ffffff" />
  
  <!-- Realistic Comb (multi-pointed) -->
  <path d="M55,12 C52,5 58,2 62,5 C62,0 68,0 70,5 C72,2 78,5 75,12 Z" fill="#ef4444" />
  
  <!-- Eye -->
  <circle cx="62" cy="18" r="1.5" fill="#000000" />
  
  <!-- Realistic Beak -->
  <path d="M72,22 L82,25 Q80,28 72,30 Z" fill="#fbbf24" />
  
  <!-- Wattle (pendant) -->
  <path d="M62,35 Q65,45 60,45 Q55,45 58,35" fill="#ef4444" />
  
  <!-- Legs (stylized but present) -->
  <path d="M35,85 L35,95 M50,85 L50,95" stroke="#fbbf24" stroke-width="2" stroke-linecap="round" />
</svg>
