<svg xmlns="http://www.w3.org/2000/svg" viewBox="0 0 100 100">
  <rect width="100" height="100" fill="#000000" />
  <!-- High-Contrast Iconic Rooster Profile -->
  <!-- Body & Tail -->
  <path d="M25,80 C5,80 5,30 35,25 C45,35 55,70 80,75 C80,85 40,90 25,80 Z" fill="#ffffff" />
  <!-- Neck & Head -->
  <path d="M55,75 L55,30 C55,10 85,15 85,40 L55,55 Z" fill="#ffffff" />
  <!-- Large Red Comb (Crest) -->
  <path d="M55,25 C50,5 85,0 95,25 C90,20 65,15 55,25 Z" fill="#ef4444" />
  <!-- Red Wattle -->
  <path d="M75,50 C80,60 65,60 65,50 Z" fill="#ef4444" />
  <!-- Large Yellow Beak -->
  <path d="M85,35 L98,45 L85,55 Z" fill="#fbbf24" />
</svg>
